<?xml version="1.0" standalone="no"?>
<!DOCTYPE svg PUBLIC "-//W3C//DTD SVG 20010904//EN"
 "http://www.w3.org/TR/2001/REC-SVG-20010904/DTD/svg10.dtd">
<svg version="1.0" xmlns="http://www.w3.org/2000/svg"
 width="2079.000000pt" height="2079.000000pt" viewBox="0 0 2079.000000 2079.000000"
 preserveAspectRatio="xMidYMid meet">
<metadata>
Created by potrace 1.11, written by Peter Selinger 2001-2013
</metadata>
<g transform="translate(0.000000,2079.000000) scale(0.100000,-0.100000)"
fill="#000000" stroke="none">
<path d="M10147 20784 c-1 -1 -85 -5 -187 -8 -102 -4 -201 -9 -220 -11 -19 -2
-80 -6 -135 -10 -55 -3 -111 -8 -125 -9 -14 -2 -61 -7 -105 -10 -44 -4 -93 -9
-110 -11 -16 -2 -52 -7 -80 -10 -27 -3 -63 -8 -80 -10 -16 -2 -52 -7 -80 -10
-67 -8 -112 -14 -160 -22 -22 -3 -47 -7 -55 -8 -26 -3 -174 -27 -195 -31 -11
-2 -33 -6 -50 -9 -16 -3 -41 -8 -55 -10 -14 -3 -36 -7 -50 -10 -14 -3 -36 -7
-50 -10 -14 -2 -38 -7 -55 -10 -16 -2 -111 -23 -210 -45 -99 -22 -189 -43
-200 -45 -41 -9 -332 -86 -395 -104 -141 -41 -246 -72 -260 -78 -8 -3 -19 -7
-25 -8 -28 -7 -154 -49 -270 -90 -71 -25 -134 -47 -140 -49 -38 -8 -424 -163
-600 -239 -236 -103 -296 -131 -720 -345 -25 -13 -139 -76 -310 -172 -42 -24
-285 -170 -370 -223 -86 -53 -345 -227 -458 -306 -170 -120 -572 -428 -627
-481 -9 -8 -40 -35 -70 -60 -61 -51 -215 -184 -235 -203 -7 -7 -52 -48 -101
-92 -97 -88 -483 -471 -579 -575 -165 -179 -287 -318 -385 -440 -19 -24 -41
-49 -47 -56 -38 -38 -364 -465 -451 -591 -96 -138 -233 -341 -276 -410 -60
-95 -180 -291 -206 -338 -11 -19 -30 -52 -42 -72 -12 -21 -32 -58 -46 -83 -13
-25 -27 -49 -31 -55 -23 -30 -258 -491 -326 -640 -21 -44 -47 -102 -60 -130
-127 -277 -280 -674 -403 -1045 -51 -154 -150 -490 -167 -565 -2 -11 -16 -65
-30 -120 -48 -188 -114 -489 -129 -590 -4 -22 -8 -47 -11 -55 -3 -13 -14 -70
-19 -110 -2 -8 -5 -28 -9 -45 -4 -16 -9 -48 -12 -70 -3 -23 -7 -50 -9 -61 -2
-12 -7 -45 -11 -74 -4 -29 -8 -62 -11 -73 -2 -10 -6 -45 -10 -76 -3 -31 -8
-64 -9 -73 -2 -9 -7 -48 -10 -85 -4 -37 -8 -79 -10 -93 -2 -14 -7 -61 -11
-105 -3 -44 -8 -88 -10 -97 -5 -32 -20 -254 -31 -483 -13 -275 -7 -860 12
-1095 2 -25 6 -88 9 -140 4 -52 9 -113 11 -135 2 -22 7 -69 10 -105 3 -36 10
-103 16 -150 6 -47 12 -101 14 -120 2 -19 7 -55 11 -80 3 -25 8 -56 9 -70 34
-271 121 -728 186 -985 24 -90 23 -87 44 -175 34 -141 133 -477 206 -692 45
-137 59 -175 94 -268 7 -19 23 -62 35 -95 12 -33 28 -73 35 -90 7 -16 20 -51
29 -77 9 -26 20 -56 26 -65 5 -10 26 -58 46 -108 39 -98 42 -105 147 -335 87
-193 293 -600 367 -725 10 -16 29 -50 42 -75 84 -150 252 -422 381 -615 278
-415 530 -743 863 -1120 140 -159 193 -216 379 -405 154 -158 320 -318 435
-420 41 -36 83 -74 94 -85 92 -87 416 -352 596 -488 74 -56 137 -104 140 -108
3 -3 68 -49 145 -103 77 -53 148 -103 158 -111 9 -8 19 -15 22 -15 2 0 39 -24
82 -53 153 -103 437 -280 553 -344 30 -16 118 -65 195 -108 396 -220 964 -480
1385 -632 358 -130 888 -295 1019 -318 19 -3 37 -8 41 -10 7 -4 279 -69 330
-79 14 -2 57 -11 95 -20 39 -8 83 -17 98 -20 15 -3 53 -10 85 -16 31 -5 68
-12 82 -15 24 -5 236 -39 315 -51 22 -4 47 -8 55 -9 8 -1 41 -6 74 -10 32 -3
68 -8 80 -10 11 -2 46 -6 76 -10 30 -3 68 -8 83 -10 27 -3 116 -12 202 -20 22
-2 74 -6 115 -10 250 -22 456 -29 865 -29 420 0 565 5 845 29 170 14 206 17
220 20 8 2 47 6 87 10 40 4 82 8 95 10 13 1 50 6 83 10 33 4 67 9 76 10 9 2
40 6 69 10 29 4 62 9 74 11 11 2 38 6 61 9 71 11 166 26 231 39 12 2 37 7 55
10 19 3 70 12 114 21 44 9 91 18 105 21 14 3 74 16 135 30 60 13 119 26 130
29 11 2 40 9 65 16 25 6 52 12 60 14 8 2 76 19 150 40 146 40 167 45 250 70
30 9 64 18 74 20 104 24 654 218 916 323 412 166 906 407 1290 630 185 107
483 293 510 317 9 8 20 15 23 15 10 0 302 203 437 304 63 47 126 93 139 103
14 10 39 29 55 43 17 14 36 28 41 32 53 38 397 323 461 383 6 5 46 42 90 80
255 228 623 599 829 835 26 30 74 84 105 120 207 235 491 605 707 921 66 96
122 179 124 185 2 5 29 47 60 94 65 99 239 387 239 396 0 3 8 18 18 32 50 72
323 601 402 777 12 28 33 73 45 100 49 105 154 355 194 460 23 61 46 119 51
130 17 40 179 499 179 510 0 3 16 56 35 118 34 108 102 344 111 383 2 10 9 39
16 64 6 25 12 50 13 55 2 6 8 30 15 55 7 25 15 54 17 65 9 48 13 68 18 83 3 9
7 28 10 42 3 14 16 78 30 143 14 65 28 131 31 145 2 15 7 38 10 52 6 30 10 57
31 175 8 50 17 101 20 115 11 65 47 323 60 429 3 30 7 61 9 70 1 9 6 54 10
101 3 47 8 96 10 110 2 14 6 63 10 110 3 47 8 108 10 135 26 312 27 1024 0
1420 -8 131 -17 243 -21 266 -2 15 -7 57 -10 95 -9 108 -12 136 -19 189 -19
151 -35 268 -40 294 -2 13 -7 42 -9 65 -3 22 -7 50 -10 61 -2 11 -7 40 -11 65
-4 25 -9 54 -11 65 -2 11 -9 47 -14 80 -31 173 -85 422 -140 640 -22 88 -42
167 -44 175 -55 218 -238 788 -296 925 -5 11 -27 70 -50 130 -23 61 -47 121
-53 135 -6 14 -11 27 -12 30 -1 3 -7 19 -14 35 -259 630 -588 1247 -964 1810
-85 127 -222 325 -250 360 -4 6 -55 73 -113 150 -58 77 -118 154 -134 171 -15
17 -33 40 -39 52 -6 11 -17 26 -24 34 -7 7 -48 56 -92 108 -43 52 -109 129
-145 170 -62 72 -90 102 -210 235 -95 105 -507 516 -616 615 -58 52 -122 111
-144 131 -21 20 -59 52 -84 73 -25 20 -51 42 -58 49 -12 11 -153 128 -202 167
-10 8 -23 20 -30 25 -13 12 -225 178 -276 215 -18 14 -46 35 -61 48 -15 12
-32 22 -38 22 -6 0 -11 3 -11 8 0 4 -24 23 -52 42 -61 40 -63 42 -103 73 -25
20 -351 237 -411 274 -105 65 -235 145 -261 160 -350 202 -382 220 -688 372
-132 65 -330 158 -440 205 -110 48 -209 91 -220 96 -47 21 -467 181 -490 187
-5 1 -71 23 -145 48 -129 44 -432 139 -495 155 -16 4 -55 15 -86 24 -31 9 -65
18 -75 20 -11 2 -75 18 -144 36 -69 17 -143 35 -165 40 -22 4 -94 20 -160 34
-66 15 -129 28 -140 30 -24 5 -98 20 -105 21 -3 1 -27 5 -55 10 -27 4 -59 9
-70 12 -39 8 -216 36 -305 48 -19 3 -44 7 -55 9 -11 3 -46 8 -78 11 -32 4 -67
8 -77 10 -10 2 -50 7 -87 10 -37 4 -79 8 -93 10 -14 2 -56 7 -95 10 -38 4 -86
8 -105 10 -19 2 -78 7 -130 10 -52 4 -115 8 -139 10 -126 12 -893 28 -904 19z"/>
</g>
</svg>
